<?xml version="1.0" encoding="UTF-8"?>
<svg width="382px" height="382px" viewBox="0 0 382 382" version="1.1" xmlns="http://www.w3.org/2000/svg" xmlns:xlink="http://www.w3.org/1999/xlink">
    <title>Group 6</title>
    <g id="启动页+弹窗" stroke="none" stroke-width="1" fill="none" fill-rule="evenodd">
        <g id="logo" transform="translate(-419, -612)">
            <g id="Group-6" transform="translate(419, 612)">
                <rect id="Rectangle" fill="#FFFFFF" x="0" y="0" width="382" height="382" rx="84"></rect>
                <path d="M291.221349,225.828601 C293.896078,222.137335 295.348623,217.972747 296.292457,213.636621 C297.81219,206.641639 297.588229,199.726074 295.076671,192.889925 C290.555866,180.570879 282.803629,171.349066 269.881102,167.251188 C255.419646,162.667284 242.100389,165.084714 230.691195,175.087982 C221.489614,183.159848 216.831233,193.639614 216.722452,205.815711 C216.556082,224.650064 216.68086,243.484418 216.668062,262.321948 C216.664863,268.119333 216.242537,273.840478 214.889175,279.542564 C212.659167,288.961329 208.55109,297.439806 202.625732,305.051057 C193.932861,316.220156 182.773224,324.05695 169.364382,328.89181 C157.100939,333.313706 144.594339,334.517656 131.735801,332.392477 C131.191897,332.303531 130.619197,332.382948 129.489796,332.382948 C130.238464,332.891211 130.449627,333.107224 130.705582,333.202523 C137.9971,335.874085 145.531774,337.611712 153.277612,338.119976 C160.265183,338.583767 167.239956,338.466231 174.20833,337.154275 C181.445457,335.794669 188.468222,333.866443 195.116653,330.804153 C208.519095,324.631923 219.69473,315.730952 228.355606,303.793104 C234.655298,295.111322 239.076921,285.57502 241.118161,275.123844 C242.218768,269.475762 242.72108,263.640257 242.797866,257.880992 C243.015428,241.845267 242.871453,225.803188 242.874653,209.761109 C242.874653,208.728698 242.823462,207.686757 242.919445,206.660699 C243.479346,200.679069 248.160123,194.767324 256.101126,195.469364 C263.58461,196.133284 268.838086,204.541874 265.955393,211.311314 C265.06275,213.401549 263.58461,214.684915 261.265018,214.875514 C258.932628,215.066113 256.894587,214.5102 255.541225,212.435848 C255.173289,211.870404 254.837348,211.282724 254.389427,210.545741 C251.861872,221.7339 261.249021,233.585979 273.602048,234.01165 C280.86797,234.262605 286.866915,231.845175 291.221349,225.828601 Z M93.4447976,302.024579 C99.7549224,309.493704 107.483948,315.18733 116.520276,319.038993 C122.170373,321.444305 128.069176,322.947625 134.219873,323.824297 C142.459066,324.998469 150.526077,324.264216 158.41453,322.301988 C168.423364,319.811225 177.328962,315.010096 185.172775,308.227751 C193.172827,301.30615 199.148155,293.058463 202.929766,283.291632 C206.04816,275.227509 207.431987,266.824743 207.422422,258.17828 C207.393725,236.109547 207.416045,214.040813 207.422422,191.972079 C207.422422,184.518778 208.158975,177.214227 210.524873,170.039435 C214.172565,158.987662 221.059816,150.831757 231.546931,145.625523 C238.344903,142.254922 245.624344,140.615512 253.126984,139.770488 C256.854389,139.349559 260.674263,139.292591 264.283692,138.403258 C268.600978,137.339857 272.838551,135.792229 276.926261,134.032554 C286.689577,129.835918 294.587596,123.262455 300.824384,114.752083 C306.216209,107.390563 309.439825,99.0795789 311.477303,90.2938619 C311.901379,88.4455698 311.895002,86.4991664 312.156463,83.9387755 C311.180769,84.7553155 310.705676,85.0749687 310.326239,85.4800739 C306.018519,90.1451124 301.14005,94.1676795 295.741848,97.5097966 C285.717072,103.716133 274.754864,107.507664 263.052915,109.093271 C257.37731,109.859173 251.6475,110.254783 245.94001,110.795978 C240.525865,111.308689 235.216943,112.416399 230.054693,114.020995 C217.896782,117.796701 207.428799,124.366999 198.644366,133.475535 C184.519124,148.125781 177.057936,165.580114 176.879378,185.844864 C176.697631,206.470411 176.828361,227.095958 176.837926,247.721505 C176.841115,254.472202 175.874987,261.045665 173.604745,267.441895 C170.295038,276.749818 165.289027,284.946866 157.54087,291.289293 C151.78874,295.995475 145.217155,299.207832 138.106706,301.546681 C125.409932,305.724328 113.009692,304.936272 100.947437,299.641421 C95.7533021,297.35954 90.9386036,294.2358 85.6870748,291.346261 C85.9230269,291.817829 86.076077,292.279902 86.3566687,292.656523 C88.6970585,295.796088 90.9194723,299.036929 93.4447976,302.024579 Z M136.011513,127.131519 C134.452578,133.560121 130.890669,138.618848 124.632571,141.390234 C119.834376,143.516228 114.793397,143.816778 109.599079,142.892983 C106.854972,142.402612 104.008639,142.086244 101.232587,142.222282 C97.5141455,142.405776 95.1246317,144.822829 94.163076,148.85336 C94.805178,149.157073 95.4856144,149.577843 96.226747,149.805628 C103.944749,152.194208 108.040145,157.300391 108.190289,165.266542 C108.343626,173.612335 108.238207,181.967619 108.241401,190.316576 C108.244596,207.637735 108.235012,224.958894 108.254179,242.280053 C108.254179,243.820766 108.362794,245.367807 108.500159,246.905356 C109.07837,253.318139 115.42911,257.506854 120.562731,257.272742 C126.46943,257.003829 131.551939,252.245651 132.123761,246.250474 C132.241959,245.022965 132.190846,243.776475 132.194041,242.539475 C132.225986,223.465636 132.225986,204.391797 132.29946,185.321122 C132.337795,176.329938 133.254627,167.392536 135.228851,158.629137 C137.909068,146.743184 142.090717,135.388729 148.278535,124.761921 C154.734695,113.679543 162.768956,103.94173 172.518683,95.5706274 C186.756735,83.3461601 203.000956,74.8390192 221.273709,70.0808415 C229.004489,68.065576 236.923746,67.578369 244.836615,67.031052 C251.404583,66.5754818 258.017275,66.6102823 264.559687,65.9522364 C279.618735,64.4336691 294.192213,61.0295473 307.53899,53.6676592 C313.717224,50.25721 319.735732,46.5810115 325.837298,43.0376877 C326.421899,42.69601 327.060806,42.4492428 328,42 C326.322868,48.1723436 323.607511,53.4620199 320.518394,58.5302385 C316.637031,64.892403 311.992174,70.681941 306.606185,75.9209984 C300.763376,81.6092987 294.224159,86.3231849 287.007699,90.0974575 C278.673152,94.4570113 269.872202,97.6871306 260.528181,99.1993706 C256.106942,99.9175264 251.625006,100.287677 247.159043,100.673646 C229.129076,102.233342 213.268199,108.835946 199.477382,120.367567 C192.516485,126.185578 186.47881,132.819819 181.357967,140.251308 C176.933533,146.670419 173.684689,153.640011 171.403789,161.093645 C168.132583,171.777399 167.484092,182.736394 167.448952,193.777644 C167.388256,212.231401 167.634236,230.691486 167.302004,249.138916 C166.998523,265.90643 159.504139,279.076838 144.905104,287.808601 C136.851676,292.623725 127.807941,294.221384 118.377668,293.446282 C105.759246,292.414922 95.3770001,287.090445 87.3938518,277.441215 C80.7492146,269.402299 77.6153736,260.012491 77.5866228,249.69256 C77.5131484,223.506764 77.557872,197.317804 77.5482883,171.132008 C77.5482883,169.170525 77.4524522,167.209043 77.5482883,165.253887 C77.8709366,158.679756 72.1591042,151.317868 63.926782,151.896822 C61.3232342,152.077152 58.6973247,151.928459 56.0841933,151.887331 C55.1865284,151.874676 53.953437,152.080315 53.9987194,150.694623 C54.0492732,149.359549 55.2919481,149.571515 56.1768349,149.54937 C58.8921915,149.486096 61.6107426,149.476605 64.3324882,149.473441 C71.2294939,149.46395 78.1296941,149.476605 85.0330889,149.460787 C88.6045814,149.454459 88.5949978,149.432313 89.3201577,146.091465 C90.8950645,138.859288 97.3384459,131.367689 107.126508,131.58282 C108.797251,131.620784 110.477577,131.589147 112.141931,131.715694 C121.42845,132.402213 128.852555,129.096166 134.414244,121.724786 C134.72092,121.319835 135.088291,120.959175 135.442885,120.589025 C135.493998,120.535242 135.628168,120.560552 136.037069,120.519424 C136.500277,122.715019 136.529028,124.996034 136.011513,127.131519 Z" id="Fill-1" fill="#D60010"></path>
            </g>
        </g>
    </g>
</svg>