<svg width="32" height="32" viewBox="0 0 32 32" fill="none" xmlns="http://www.w3.org/2000/svg">
<rect width="32" height="32" fill="white"/>
<path fill-rule="evenodd" clip-rule="evenodd" d="M16.9688 9.33762H15.3797V10.8812H12.0513V12.1491H15.3758C15.3758 12.1491 14.7324 14.513 12.0513 15.5778V17.0189C14.2064 16.3474 15.4741 14.9339 16.1743 13.814C16.8746 14.9339 18.1423 16.3474 20.2973 17.0189V15.5778C17.6161 14.513 16.9729 12.1491 16.9729 12.1491H20.2973V10.8812H16.9688V9.33762Z" fill="#0305C3"/>
<path fill-rule="evenodd" clip-rule="evenodd" d="M29.3333 10.8812H26.0052V9.33768H24.4157V10.8812H21.0872V12.1491H24.4117C24.4117 12.1491 23.7686 14.513 21.0872 15.5777V17.0189C23.2422 16.3472 24.5099 14.934 25.2106 13.8141C25.911 14.934 27.1785 16.3472 29.3333 17.0189V15.5777C26.652 14.513 26.0091 12.1491 26.0091 12.1491H29.3333V10.8812Z" fill="#0305C3"/>
<mask id="mask0_4047_1289" style="mask-type:luminance" maskUnits="userSpaceOnUse" x="2" y="9" width="28" height="14">
<path fill-rule="evenodd" clip-rule="evenodd" d="M2.66667 22.6667H29.3333V9.33333H2.66667V22.6667Z" fill="white"/>
</mask>
<g mask="url(#mask0_4047_1289)">
<path fill-rule="evenodd" clip-rule="evenodd" d="M2.66667 11.3618H4.2274V9.78726H2.66667V11.3618Z" fill="#0305C3"/>
<path fill-rule="evenodd" clip-rule="evenodd" d="M2.66667 14.0581H4.2274V12.4837H2.66667V14.0581Z" fill="#0305C3"/>
<path fill-rule="evenodd" clip-rule="evenodd" d="M2.66667 17.0189H4.2274V15.4446H2.66667V17.0189Z" fill="#0305C3"/>
<path fill-rule="evenodd" clip-rule="evenodd" d="M6.91975 15.7567L8.12264 13.7657L9.32578 15.7567H6.91975ZM11.2936 16.2243L9.8001 13.7529H11.2551V12.4826H8.92048V11.3656H11.0217V10.1033H8.92048V9.33334H7.3253V10.1033H5.22404V11.3656H7.3253V12.4826H4.9902V13.7529H6.44555L4.95218 16.2243C4.85165 16.3903 4.84872 16.5834 4.94376 16.7524C5.0388 16.9219 5.20541 17.019 5.39869 17.019H10.847C11.0407 17.019 11.2068 16.9219 11.3019 16.7524C11.3969 16.5834 11.3939 16.3903 11.2936 16.2243V16.2243Z" fill="#0305C3"/>
<path fill-rule="evenodd" clip-rule="evenodd" d="M3.77901 19.426V22.6593H2.66682V19.426V19.3464V19.0452V18.8858C2.66682 18.6224 2.9013 18.4079 3.18898 18.4079H3.36312H3.58458H6.61318V19.426H3.77901Z" fill="#0305C3"/>
<path fill-rule="evenodd" clip-rule="evenodd" d="M4.60272 21.6196H5.856V20.3554H4.60272V21.6196Z" fill="#0305C3"/>
<path fill-rule="evenodd" clip-rule="evenodd" d="M11.376 22.6667V18.4134H12.8989C14.5022 18.4134 15.3848 19.1599 15.3848 20.5153V20.5276C15.3848 21.887 14.4686 22.6667 12.8709 22.6667H11.376ZM12.4917 21.6518H13.0777C13.8362 21.6518 14.2571 21.2996 14.2571 20.5462V20.5339C14.2571 19.7801 13.8362 19.4284 13.0777 19.4284H12.4917V21.6518Z" fill="#0305C3"/>
<path fill-rule="evenodd" clip-rule="evenodd" d="M20.6691 22.6667V18.4134H22.192C23.7952 18.4134 24.6779 19.1599 24.6779 20.5153V20.5276C24.6779 21.887 23.7617 22.6667 22.1638 22.6667H20.6691ZM21.7848 21.6518H22.3711C23.1294 21.6518 23.5504 21.2996 23.5504 20.5462V20.5339C23.5504 19.7801 23.1294 19.4284 22.3711 19.4284H21.7848V21.6518Z" fill="#0305C3"/>
<path fill-rule="evenodd" clip-rule="evenodd" d="M6.15681 22.6592L7.87854 18.9921H9.11039L10.8322 22.6592H9.6217L8.49459 20.2592L7.35077 22.6592H6.15681Z" fill="#0305C3"/>
<path fill-rule="evenodd" clip-rule="evenodd" d="M7.70899 19.3537L8.01517 18.7026C8.09898 18.5231 8.28129 18.4134 8.49459 18.4134C8.70789 18.4134 8.89007 18.5231 8.97426 18.7026L9.27993 19.3537C9.35175 19.5058 9.33619 19.6673 9.23643 19.8055C9.13705 19.9439 8.98141 20.0207 8.80064 20.0207H8.18867C8.0079 20.0207 7.85238 19.9439 7.75262 19.8055C7.65311 19.6673 7.63742 19.5058 7.70899 19.3537" fill="#0305C3"/>
<path fill-rule="evenodd" clip-rule="evenodd" d="M15.3889 22.6592L17.111 18.9921H18.3425L20.0646 22.6592H18.854L17.727 20.2592L16.583 22.6592H15.3889Z" fill="#0305C3"/>
<path fill-rule="evenodd" clip-rule="evenodd" d="M16.9412 19.3537L17.2473 18.7026C17.3314 18.5231 17.5137 18.4134 17.7267 18.4134C17.94 18.4134 18.1226 18.5231 18.2065 18.7026L18.5124 19.3537C18.5839 19.5058 18.5681 19.6673 18.4686 19.8055C18.3689 19.9439 18.2139 20.0207 18.0328 20.0207H17.421C17.24 20.0207 17.0843 19.9439 16.9847 19.8055C16.8855 19.6673 16.8698 19.5058 16.9412 19.3537" fill="#0305C3"/>
<path fill-rule="evenodd" clip-rule="evenodd" d="M24.6574 22.6592L26.3797 18.9921H27.6109L29.3333 22.6592H28.1223L26.9956 20.2592L25.8515 22.6592H24.6574Z" fill="#0305C3"/>
<path fill-rule="evenodd" clip-rule="evenodd" d="M26.2096 19.3537L26.5155 18.7026C26.5997 18.5231 26.7821 18.4134 26.9951 18.4134C27.2084 18.4134 27.3911 18.5231 27.4752 18.7026L27.7808 19.3537C27.8523 19.5058 27.837 19.6673 27.7371 19.8055C27.6376 19.9439 27.4822 20.0207 27.3011 20.0207H26.6897C26.5085 20.0207 26.3529 19.9439 26.2534 19.8055C26.1541 19.6673 26.1382 19.5058 26.2096 19.3537" fill="#0305C3"/>
</g>
</svg>
