<svg width="36" height="36" viewBox="0 0 36 36" fill="none" xmlns="http://www.w3.org/2000/svg">
<rect width="36" height="36" rx="7.71429" fill="url(#paint0_linear_632_1095)"/>
<path d="M13.3113 12.9106H8.65198V14.0548H13.3113V12.9106Z" fill="white" style="fill:white;fill-opacity:1;"/>
<path d="M10.0592 21.9367H8.4989C9.86097 20.5432 11.0562 18.8004 11.5253 16.4747H12.75C12.2632 18.8711 11.3918 20.3195 10.0592 21.9367Z" fill="white" style="fill:white;fill-opacity:1;"/>
<path d="M11.863 21.9367H13.4233C12.0612 20.5432 10.866 18.8004 10.3969 16.4747H9.17224C9.65898 18.8711 10.5304 20.3195 11.863 21.9367Z" fill="white" style="fill:white;fill-opacity:1;"/>
<path d="M21.5094 12.5026H13.9885V13.5762H21.5094V12.5026Z" fill="white" style="fill:white;fill-opacity:1;"/>
<path d="M21.7919 18.7752H13.7097V19.9194H21.7919V18.7752Z" fill="white" style="fill:white;fill-opacity:1;"/>
<path d="M31.4008 13.5113V12.2022H29.1477V13.5113H29.5559V20.8672H29.1477V22.0487H31.4008V20.8672H30.9946V13.5113H31.4008Z" fill="white" style="fill:white;fill-opacity:1;"/>
<path d="M18.0594 18.3342L16.2199 16.4653L16.7519 15.8214L18.0947 16.8324L21.1474 14.8869L21.5931 15.4464L18.0594 18.3342Z" fill="#D4332A" style="fill:#D4332A;fill:color(display-p3 0.8314 0.2000 0.1647);fill-opacity:1;"/>
<path d="M19.6351 15.5719L20.9599 14.6396V13.8918H14.5401V19.4598H15.8492V15.0361H19.6351V15.5719Z" fill="white" style="fill:white;fill-opacity:1;"/>
<path d="M19.6506 17.3856V18.6397H20.9597V16.2845L19.6506 17.3856Z" fill="white" style="fill:white;fill-opacity:1;"/>
<path d="M13.71 17.0007C13.3587 16.3433 12.923 15.4601 12.5423 14.3394H11.2273C11.5688 15.4228 11.9652 16.3021 12.3185 17.0007H13.71Z" fill="white" style="fill:white;fill-opacity:1;"/>
<path d="M9.60199 17.0007C10.075 16.1254 10.4636 15.2324 10.758 14.3394H9.4391C9.11919 15.2344 8.70114 16.1274 8.19086 17.0007H9.60199Z" fill="white" style="fill:white;fill-opacity:1;"/>
<path d="M17.323 12L16.6577 14.2727L18.0944 14.2786L18.7636 12H17.323Z" fill="white" style="fill:white;fill-opacity:1;"/>
<path d="M9.99835 12L10.487 13.4857L11.6921 13.1579L11.3114 12H9.99835Z" fill="white" style="fill:white;fill-opacity:1;"/>
<path d="M15.9002 19.5012C15.5115 19.8446 14.86 20.3098 14.2123 20.5512V22.0369C15.3899 21.5011 16.3555 20.824 17.0208 20.1744L15.9002 19.5012Z" fill="white" style="fill:white;fill-opacity:1;"/>
<path d="M19.5604 19.5012C19.949 19.8446 20.6006 20.3098 21.2482 20.5512V22.0369C20.1825 21.5757 19.0638 20.9143 18.4397 20.1744L19.5604 19.5012Z" fill="white" style="fill:white;fill-opacity:1;"/>
<path d="M8.27911 12.7713H4.93085V13.9449H8.27911V12.7713Z" fill="white" style="fill:white;fill-opacity:1;"/>
<path d="M7.77047 15.3599H6.48102V21.9603H7.77047V15.3599Z" fill="white" style="fill:white;fill-opacity:1;"/>
<path d="M4.60498 19.3637V20.5511L8.27904 20.186V18.9986L4.60498 19.3637Z" fill="white" style="fill:white;fill-opacity:1;"/>
<path d="M8.279 16.4395L6.16917 16.5945L7.28395 12H5.96505L4.54999 17.8918L8.279 17.6151V16.4395Z" fill="white" style="fill:white;fill-opacity:1;"/>
<path d="M25.9978 12.2022L24.2452 12.214L21.5878 22.0507H23.0794L23.7486 19.6975H26.6357L27.3501 22.0507H28.8476L25.9959 12.2042L25.9978 12.2022ZM25.1833 18.8005C24.9831 17.7309 24.5533 16.8909 23.3757 16.7103C24.5514 16.5298 24.9831 15.6898 25.1833 14.6201C25.3835 15.6898 25.8133 16.5298 26.9909 16.7103C25.8153 16.8909 25.3835 17.7309 25.1833 18.8005Z" fill="white" style="fill:white;fill-opacity:1;"/>
<path opacity="0.8" d="M31.5476 31.114C31.6575 31.114 31.7628 31.1575 31.8406 31.2351C31.9184 31.3129 31.9627 31.419 31.9627 31.529C31.9626 31.639 31.9183 31.7442 31.8406 31.822V31.8318C31.2386 32.4332 30.422 32.7712 29.5711 32.7712C28.7203 32.7711 27.9044 32.4331 27.3025 31.8318C27.1629 31.69 27.0363 31.5354 26.9246 31.3708C26.9208 31.3645 26.9187 31.3566 26.9197 31.3493C26.9208 31.3421 26.9251 31.3358 26.9304 31.3308C26.9358 31.3258 26.9427 31.3225 26.95 31.322C26.9572 31.3215 26.9645 31.3237 26.9705 31.3278C27.5719 31.8394 28.3402 32.1124 29.1297 32.0954C29.9192 32.0784 30.6757 31.7722 31.2547 31.2351C31.3324 31.1575 31.4378 31.114 31.5476 31.114ZM29.5691 27.862C30.2695 27.862 30.5554 28.4693 30.5554 29.073V29.1814L30.697 29.5349C30.7354 29.6363 30.7739 29.7411 30.8015 29.8318C30.935 30.2616 30.8917 30.4399 30.8425 30.446C30.7706 30.4536 30.5674 30.1237 30.5662 30.1218C30.5616 30.2417 30.5322 30.3598 30.4793 30.4675C30.4264 30.5751 30.3506 30.6699 30.2586 30.7468C30.3446 30.7705 30.4269 30.8076 30.5017 30.8562C30.5584 30.8976 30.5506 30.9409 30.5398 30.9577C30.4936 31.0326 29.7709 31.0067 29.5603 30.9821C29.3485 31.0067 28.6267 31.0328 28.5799 30.9577C28.5706 30.9408 28.5632 30.8976 28.6199 30.8562C28.694 30.8073 28.7755 30.7702 28.8611 30.7468C28.7693 30.6697 28.6942 30.5741 28.6414 30.4665C28.5886 30.359 28.5584 30.2415 28.5535 30.1218C28.5484 30.13 28.3489 30.4533 28.2791 30.446C28.2453 30.446 28.2022 30.2617 28.3357 29.8318C28.3649 29.7411 28.4022 29.6363 28.4422 29.5349L28.5828 29.1814V29.073C28.5828 28.4694 28.8688 27.8621 29.5691 27.862ZM30.4021 26.4538H30.409C31.2304 26.6745 31.9311 27.2123 32.3562 27.9489C32.7813 28.6856 32.8965 29.561 32.6765 30.3825C32.6263 30.5728 32.558 30.7586 32.4734 30.9362C32.4697 30.9423 32.4644 30.9474 32.4578 30.9499C32.451 30.9525 32.4432 30.952 32.4363 30.9499C32.4297 30.9478 32.4237 30.9439 32.4197 30.9382C32.4156 30.9323 32.4135 30.9248 32.4138 30.9177C32.5555 30.1407 32.407 29.3387 31.9968 28.6638C31.5866 27.9889 30.9432 27.4876 30.1883 27.2556C30.0821 27.2273 29.9915 27.1582 29.9363 27.0632C29.8811 26.968 29.866 26.8541 29.8943 26.7478C29.9227 26.6417 29.9917 26.5509 30.0867 26.4958C30.1819 26.4407 30.2958 26.4255 30.4021 26.4538ZM29.3445 26.364C29.3498 26.3682 29.3536 26.374 29.3552 26.3806C29.3569 26.3874 29.3563 26.3948 29.3533 26.4011C29.3503 26.4074 29.3449 26.4127 29.3386 26.4157C28.594 26.6792 27.9722 27.2066 27.5906 27.8982C27.209 28.5897 27.0942 29.3973 27.2683 30.1677C27.2899 30.2719 27.2705 30.3809 27.2146 30.4714C27.1587 30.5617 27.0702 30.6277 26.9675 30.655C26.8648 30.6823 26.7553 30.6687 26.6619 30.6179C26.5685 30.5671 26.4976 30.4827 26.4646 30.3816C26.3563 29.9742 26.3297 29.5494 26.3855 29.1316C26.4414 28.7139 26.5793 28.3115 26.7908 27.947C27.0023 27.5825 27.283 27.2624 27.6179 27.0066C27.9529 26.7507 28.3355 26.5639 28.7429 26.4558C28.9334 26.4044 29.1282 26.3711 29.325 26.3571C29.332 26.357 29.339 26.3597 29.3445 26.364Z" fill="url(#paint1_linear_632_1095)" fill-opacity="0.9"/>
<defs>
<linearGradient id="paint0_linear_632_1095" x1="3.53571" y1="1.60714" x2="40.8214" y2="43.0714" gradientUnits="userSpaceOnUse">
<stop stop-color="#354BBE" style="stop-color:#354BBE;stop-color:color(display-p3 0.2078 0.2941 0.7451);stop-opacity:1;"/>
<stop offset="1" stop-color="#556BDD" style="stop-color:#556BDD;stop-color:color(display-p3 0.3333 0.4196 0.8667);stop-opacity:1;"/>
</linearGradient>
<linearGradient id="paint1_linear_632_1095" x1="27.3214" y1="28.9286" x2="32.2424" y2="33.6311" gradientUnits="userSpaceOnUse">
<stop stop-color="white" style="stop-color:white;stop-opacity:1;"/>
<stop offset="1" stop-color="#BDE0F5" style="stop-color:#BDE0F5;stop-color:color(display-p3 0.7412 0.8784 0.9608);stop-opacity:1;"/>
</linearGradient>
</defs>
</svg>
