<svg xmlns="http://www.w3.org/2000/svg" direction="ltr" width="640" height="640" viewBox="-16.018433388866924 5210.313294149892 640 640" stroke-linecap="round" stroke-linejoin="round" data-color-mode="light" class="tl-container tl-theme__force-sRGB tl-theme__light" style="background-color: transparent;"><defs/><g transform="matrix(1, 0, 0, 1, -16.0184, 5210.3133)" opacity="1"><g data-lovart-layer-name="SVG 5"><g transform="scale(1, 1)"><g>
<g xmlns="http://www.w3.org/2000/svg" stroke-width="2.00" fill="none" stroke-linecap="butt">
<path stroke="#3d896d" d="M 640.00 415.44   Q 640.12 414.13 636.93 415.90   A 2.72 2.66 24.6 0 1 636.12 416.19   Q 617.57 419.82 598.80 423.77   Q 588.30 425.98 585.62 426.66   C 581.78 427.64 577.78 428.11 574.01 428.91   Q 558.62 432.16 531.95 437.72   Q 490.01 446.46 481.00 448.44   Q 468.36 451.22 460.29 452.66   C 453.59 453.86 449.06 455.17 443.01 456.43   Q 442.76 456.48 441.96 456.95   Q 441.25 457.36 440.92 456.82"/>
<path stroke="#80a9ec" d="M 440.92 456.82   Q 460.65 428.74 462.94 394.84   A 0.33 0.33 0.0 0 1 463.55 394.69   Q 471.47 407.49 481.02 420.23   C 486.00 426.88 491.83 434.70 498.75 438.31   Q 502.30 440.17 503.88 436.35   Q 506.22 430.66 506.32 424.99   Q 506.50 413.54 505.61 406.42   Q 503.34 388.26 499.04 371.97   Q 491.21 342.35 478.35 309.94   Q 466.37 279.74 460.39 265.18   Q 458.68 261.02 458.76 258.99   Q 459.66 236.37 457.01 213.06   C 456.09 204.96 454.22 195.92 452.68 189.04   C 447.10 164.09 436.19 138.98 419.76 119.06   C 395.33 89.43 360.59 74.81 322.50 74.44   Q 301.16 74.23 283.60 78.68   C 204.12 98.82 178.27 183.12 180.63 255.97   C 180.75 259.70 180.21 262.54 178.85 265.83   Q 169.98 287.15 157.67 318.88   C 147.11 346.13 138.34 374.91 134.25 403.47   Q 132.45 416.04 133.71 429.56   C 133.96 432.30 134.86 435.48 136.51 437.79   A 2.59 2.57 64.0 0 0 139.34 438.77   C 144.07 437.35 148.75 432.32 151.83 428.58   Q 164.25 413.50 174.49 396.99   Q 175.47 395.40 176.47 394.49   A 0.26 0.25 -20.6 0 1 176.90 394.68   Q 176.84 400.59 177.90 406.92   C 182.68 435.60 198.19 461.62 220.17 480.67   A 0.51 0.51 0.0 0 1 219.98 481.54   Q 204.86 485.97 190.91 493.90   C 184.84 497.34 178.46 503.06 180.97 510.90"/>
<path stroke="#3d896d" d="M 180.97 510.90   Q 180.54 511.43 179.81 511.57   Q 142.87 518.95 102.11 527.64   C 100.78 527.92 98.92 527.73 97.70 528.69   A 1.00 0.99 33.2 0 1 96.85 528.86   Q 96.35 528.72 87.29 530.75   Q 80.51 532.27 77.84 532.77   Q 67.85 534.64 44.33 539.71   Q 43.53 539.89 22.12 544.28   Q 10.98 546.56 0.00 549.28"/>
<path stroke="#bce080" d="M 440.92 456.82   L 180.97 510.90"/>
<path stroke="#3d896d" d="M 640.00 415.61   Q 639.35 416.93 640.00 417.75"/>
<path stroke="#bae075" d="M 479.07 509.47   L 513.18 502.24   A 0.78 0.77 82.3 0 0 513.79 501.43   L 512.33 478.71   A 1.97 1.97 0.0 0 0 511.59 477.28   C 509.33 475.49 503.42 477.19 499.31 478.02   A 1.01 1.01 0.0 0 1 498.10 477.09   L 497.89 473.81   A 1.00 0.99 82.0 0 0 496.69 472.90   L 490.82 474.14   A 1.09 1.08 -8.0 0 0 489.96 475.27   L 490.23 479.40   A 0.74 0.73 82.3 0 1 489.65 480.17   L 477.34 482.78   A 0.72 0.72 0.0 0 0 476.77 483.53   L 478.40 508.96   A 0.56 0.56 0.0 0 0 479.07 509.47"/>
<path stroke="#bae075" d="M 474.41 524.41   L 472.02 487.08   A 0.97 0.96 -8.3 0 1 472.78 486.07   L 474.08 485.80   A 1.25 1.25 0.0 0 0 475.07 484.50   L 474.77 479.87   A 0.80 0.80 0.0 0 0 473.81 479.14   L 447.18 484.79   A 0.34 0.33 -7.9 0 0 446.91 485.14   L 447.30 491.17   A 0.20 0.20 0.0 0 0 447.58 491.35   Q 451.13 489.88 451.29 491.50   Q 453.22 510.64 453.98 534.10   A 1.22 1.21 69.4 0 1 453.54 535.08   Q 452.99 535.53 451.95 535.76   A 1.60 1.60 0.0 0 0 450.69 537.36   L 450.79 542.37   A 0.79 0.79 0.0 0 0 451.92 543.07   L 466.50 536.23   A 0.68 0.67 -14.3 0 1 467.46 536.80   L 468.23 548.81   A 0.86 0.86 0.0 0 0 469.26 549.59   L 475.12 548.35   A 1.30 1.29 82.3 0 0 476.14 547.00   L 475.24 532.99   A 1.52 1.51 -14.5 0 1 476.11 531.52   L 478.35 530.47   A 1.29 1.29 0.0 0 0 479.09 529.27   L 478.98 523.96   A 0.63 0.62 -9.8 0 0 478.15 523.38   Q 476.71 523.87 475.83 524.89   A 0.81 0.81 0.0 0 1 474.41 524.41"/>
<path stroke="#bae075" d="M 390.34 496.19   A 0.50 0.50 0.0 0 0 389.74 495.74   L 382.53 497.26   A 0.53 0.52 -8.5 0 0 382.12 497.80   L 382.99 511.36   A 0.85 0.84 82.2 0 1 382.32 512.25   L 374.73 513.86   A 1.21 1.21 0.0 0 0 373.77 515.09   L 373.96 519.96   A 0.98 0.98 0.0 0 0 375.14 520.88   L 382.48 519.32   A 1.00 1.00 0.0 0 1 383.68 520.23   L 384.56 534.07   A 0.80 0.80 0.0 0 1 384.09 534.86   L 375.55 538.88   A 1.29 1.29 0.0 0 0 375.03 540.78   L 377.89 544.92   A 1.40 1.39 -29.8 0 0 379.63 545.39   L 384.39 543.16   A 0.54 0.54 0.0 0 1 385.16 543.61   L 386.18 559.46   A 0.79 0.79 0.0 0 1 385.55 560.28   L 378.14 561.86   A 1.02 1.02 0.0 0 0 377.50 563.42   L 379.87 566.99   A 2.29 2.28 -22.9 0 0 382.24 567.95   L 394.47 565.36   A 0.62 0.62 0.0 0 0 394.96 564.72   L 393.32 539.24   A 2.07 2.07 0.0 0 1 394.51 537.23   L 399.56 534.86   A 1.47 1.46 75.9 0 0 400.40 533.44   L 400.11 529.05   A 1.56 1.56 0.0 0 1 401.34 527.43   L 410.62 525.47   A 1.56 1.56 0.0 0 0 411.71 524.58   C 415.01 517.12 416.64 510.03 419.27 499.16   A 2.59 2.57 0.7 0 1 421.24 497.25   L 429.32 495.54   A 0.88 0.88 0.0 0 1 430.38 496.37   L 431.05 513.69   A 1.32 1.32 0.0 0 1 430.00 515.03   L 419.33 517.29   A 0.59 0.59 0.0 0 0 418.92 518.12   L 420.70 521.91   A 1.87 1.86 71.4 0 0 422.78 522.95   L 439.71 519.36   A 0.28 0.27 82.5 0 0 439.92 519.08   L 438.09 490.66   A 1.74 1.73 29.9 0 0 437.90 489.96   Q 436.69 487.67 433.21 488.24   Q 430.84 488.62 399.34 495.20   A 0.96 0.96 0.0 0 0 398.67 496.54   L 400.19 499.78   A 2.23 2.22 -18.6 0 0 402.67 501.01   L 409.85 499.49   A 0.82 0.82 0.0 0 1 410.83 500.42   Q 408.81 512.46 403.08 523.58   Q 401.83 526.00 399.98 526.57   C 397.49 527.34 396.68 527.87 393.95 529.75   A 0.95 0.94 70.8 0 1 392.47 529.03   L 391.76 517.96   A 0.67 0.67 0.0 0 1 392.29 517.26   L 398.98 515.84   A 0.99 0.99 0.0 0 0 399.75 514.66   L 398.66 509.53   A 0.69 0.68 -11.9 0 0 397.85 509.01   L 391.96 510.26   A 0.63 0.62 82.5 0 1 391.21 509.68   L 390.34 496.19"/>
<path stroke="#bae075" d="M 370.39 562.76   L 363.30 564.26   A 0.76 0.75 83.0 0 1 362.39 563.54   Q 361.96 545.67 360.60 508.76   Q 360.54 507.18 359.94 505.51   A 1.07 1.06 -2.6 0 0 359.20 504.84   Q 357.36 504.37 356.20 504.60   Q 340.50 507.67 319.71 512.30   A 0.71 0.71 0.0 0 0 319.22 513.30   L 321.42 517.99   A 1.22 1.22 0.0 0 0 322.79 518.67   L 350.83 512.73   A 0.85 0.85 0.0 0 1 351.86 513.54   L 352.51 530.26   A 1.34 1.33 83.1 0 1 351.45 531.62   L 341.76 533.68   A 0.80 0.79 -6.7 0 1 340.80 532.93   L 340.49 524.98   A 2.86 2.84 14.0 0 0 339.06 522.62   L 333.26 519.27   A 0.99 0.99 0.0 0 0 331.78 520.16   L 332.34 534.69   A 1.17 1.17 0.0 0 1 331.41 535.88   L 323.15 537.63   A 1.30 1.29 -7.2 0 0 322.13 538.94   L 322.32 543.68   A 0.80 0.80 0.0 0 0 323.28 544.44   L 331.48 542.70   A 0.88 0.87 -7.2 0 1 332.54 543.52   L 333.83 577.00   A 0.92 0.92 0.0 0 0 334.94 577.86   L 341.11 576.55   A 1.44 1.44 0.0 0 0 342.25 575.08   L 340.98 542.01   A 1.44 1.44 0.0 0 1 342.12 540.54   L 351.68 538.51   A 0.91 0.90 -7.0 0 1 352.77 539.36   L 354.07 573.11   A 0.65 0.64 -7.2 0 0 354.85 573.71   L 368.72 570.77   A 2.73 2.72 89.9 0 0 370.82 568.65   L 371.74 564.09   A 1.14 1.13 -0.4 0 0 370.39 562.76"/>
<path stroke="#bae075" d="M 484.45 529.39   L 503.75 525.30   A 1.57 1.57 0.0 0 1 505.65 526.78   L 505.91 533.43   A 1.71 1.71 0.0 0 1 504.56 535.16   L 491.75 537.88   A 1.18 1.17 -22.8 0 0 491.01 539.68   L 493.00 542.70   A 2.77 2.75 67.2 0 0 495.87 543.88   L 513.32 540.18   A 0.91 0.90 -7.2 0 0 514.04 539.26   Q 513.69 530.57 512.81 520.73   Q 512.79 520.44 512.25 518.54   A 2.05 2.05 0.0 0 0 509.85 517.10   L 492.89 520.69   A 1.23 1.22 -7.2 0 1 491.41 519.55   L 491.38 518.64   A 1.79 1.79 0.0 0 1 492.80 516.82   L 517.01 511.68   A 0.22 0.22 0.0 0 0 517.19 511.46   L 516.95 505.43   A 0.47 0.47 0.0 0 0 516.39 504.99   L 477.00 513.34   A 1.29 1.27 -7.3 0 0 475.99 514.63   L 476.17 519.26   A 0.89 0.88 -7.1 0 0 477.24 520.09   L 482.63 518.95   A 0.71 0.71 0.0 0 1 483.49 519.62   L 483.85 528.92   A 0.50 0.50 0.0 0 0 484.45 529.39"/>
<path stroke="#bae075" d="M 309.21 528.31   A 1.14 1.14 0.0 0 0 310.51 529.02   L 316.98 527.65   A 1.14 1.14 0.0 0 0 317.78 526.05   L 311.61 512.92   A 1.14 1.14 0.0 0 0 310.35 512.29   L 304.89 513.44   A 1.14 1.14 0.0 0 0 304.06 514.97   L 309.21 528.31"/>
<path stroke="#bae075" d="M 256.05 564.19   L 256.48 575.40   A 0.37 0.37 0.0 0 0 256.93 575.75   L 282.39 570.35   A 0.94 0.94 0.0 0 1 283.53 571.23   L 283.89 580.35   A 2.06 2.06 0.0 0 1 282.26 582.44   L 269.83 585.08   A 0.73 0.73 0.0 0 0 269.32 586.10   L 271.24 590.20   A 1.44 1.43 -18.4 0 0 272.83 590.99   L 291.66 586.99   A 0.92 0.91 -7.1 0 0 292.39 586.06   L 291.57 564.74   A 2.27 2.26 82.8 0 0 288.84 562.61   L 284.17 563.60   A 0.84 0.83 82.8 0 1 283.16 562.81   L 282.92 556.49   A 0.46 0.45 -85.6 0 1 283.46 556.02   L 292.12 557.77   A 1.40 1.39 -83.2 0 0 293.79 556.45   L 293.96 551.51   A 1.40 1.40 0.0 0 0 292.56 550.06   Q 286.72 550.07 281.40 546.68   A 0.71 0.71 0.0 0 1 281.63 545.39   L 291.01 543.40   A 1.10 1.09 82.9 0 0 291.88 542.28   L 291.70 537.58   A 0.54 0.54 0.0 0 0 291.05 537.07   L 272.92 540.91   A 0.79 0.79 0.0 0 1 271.98 539.97   L 272.22 538.76   A 1.83 1.82 89.8 0 1 273.62 537.34   L 287.86 534.32   A 1.39 1.39 0.0 0 0 288.97 532.90   L 288.81 528.71   A 0.60 0.59 -88.4 0 0 288.28 528.14   Q 286.39 527.92 284.78 528.70   A 0.69 0.69 0.0 0 1 283.81 527.94   L 285.52 519.53   A 0.16 0.15 -88.4 0 0 285.35 519.34   L 277.55 520.40   A 0.33 0.32 -2.4 0 0 277.27 520.69   Q 276.85 525.76 275.61 529.41   Q 275.12 530.84 273.39 530.91   A 0.46 0.46 0.0 0 1 272.91 530.47   L 272.54 520.86   A 0.39 0.39 0.0 0 0 272.07 520.50   L 264.29 522.15   A 0.45 0.44 78.7 0 0 263.95 522.67   Q 264.91 528.02 264.37 532.63   A 0.82 0.82 0.0 0 1 263.42 533.34   Q 262.75 533.24 262.35 532.68   Q 260.56 530.21 258.98 525.72   A 1.32 1.31 -15.5 0 0 257.46 524.87   L 251.47 526.14   A 0.98 0.98 0.0 0 0 250.78 527.51   L 253.91 534.16   A 0.75 0.75 0.0 0 1 253.38 535.21   L 250.12 535.91   A 1.51 1.51 0.0 0 0 248.92 537.45   L 249.08 541.61   A 0.84 0.83 -6.9 0 0 250.09 542.40   L 262.72 539.72   A 0.85 0.85 0.0 0 1 263.74 540.59   L 263.72 541.39   A 1.82 1.82 0.0 0 1 262.27 543.11   L 250.67 545.57   A 1.74 1.74 0.0 0 0 249.30 547.22   L 249.17 550.79   A 1.16 1.16 0.0 0 0 250.57 551.96   L 259.02 550.17   A 0.57 0.57 0.0 0 1 259.56 551.11   Q 255.58 555.50 250.57 558.22   A 2.49 2.48 -15.5 0 0 249.27 560.50   L 249.47 565.81   A 0.67 0.67 0.0 0 0 250.42 566.39   L 255.63 563.94   A 0.30 0.29 -13.7 0 1 256.05 564.19"/>
<path stroke="#bae075" d="M 405.24 563.14   L 440.78 555.61   A 0.66 0.66 0.0 0 0 441.30 554.94   Q 440.60 539.62 439.31 527.05   Q 438.99 523.93 435.91 524.59   Q 410.13 530.11 403.82 531.24   A 1.47 1.47 0.0 0 0 402.61 532.78   L 404.52 562.60   A 0.60 0.59 81.7 0 0 405.24 563.14"/>
<path stroke="#bae075" d="M 240.40 573.96   L 241.30 597.05   A 0.45 0.45 0.0 0 0 241.84 597.47   L 248.23 596.12   A 0.89 0.88 83.7 0 0 248.93 595.24   Q 248.46 569.72 246.75 531.01   Q 246.65 528.79 244.51 528.87   C 238.67 529.11 233.32 530.58 227.21 532.11   A 0.70 0.70 0.0 0 0 226.68 532.84   Q 228.54 560.75 228.04 589.00   Q 227.96 593.39 227.25 599.44   A 0.85 0.84 87.5 0 0 228.26 600.37   L 234.19 599.11   A 1.46 1.45 -5.1 0 0 235.34 597.74   L 236.11 574.94   A 0.89 0.88 -5.0 0 1 236.82 574.10   L 239.78 573.47   A 0.52 0.51 83.0 0 1 240.40 573.96"/>
<path stroke="#bae075" d="M 309.11 581.96   A 0.57 0.57 0.0 0 0 310.05 582.38   Q 316.60 576.65 323.69 568.46   C 326.64 565.05 326.20 560.72 325.79 556.36   A 0.52 0.51 -27.7 0 0 324.88 556.08   L 318.88 563.24   A 0.74 0.74 0.0 0 1 317.58 562.79   L 316.42 532.61   A 0.93 0.92 -7.1 0 0 315.30 531.74   L 301.48 534.67   A 1.68 1.67 83.0 0 0 300.16 536.37   L 300.34 540.97   A 0.96 0.96 0.0 0 0 301.50 541.87   L 307.30 540.64   A 0.82 0.82 0.0 0 1 308.29 541.43   L 309.11 581.96"/>
<path stroke="#bae075" d="M 279.44 574.97   A 0.94 0.94 0.0 0 0 278.31 574.09   L 252.14 579.63   A 0.94 0.94 0.0 0 0 251.46 580.89   L 253.03 584.99   A 0.94 0.94 0.0 0 0 254.10 585.57   L 278.87 580.32   A 0.94 0.94 0.0 0 0 279.61 579.37   L 279.44 574.97"/>
<path stroke="#bae075" d="M 504.8266 484.5372   A 1.24 1.24 0.0 0 0 503.3727 483.5566   L 499.5640 484.2969   A 1.24 1.24 0.0 0 0 498.5834 485.7507   L 498.8734 487.2428   A 1.24 1.24 0.0 0 0 500.3273 488.2234   L 504.1360 487.4831   A 1.24 1.24 0.0 0 0 505.1166 486.0293   L 504.8266 484.5372"/>
<path stroke="#bae075" d="M 490.8076 487.4190   A 1.14 1.14 0.0 0 0 489.4935 486.4850   L 485.7861 487.1121   A 1.14 1.14 0.0 0 0 484.8522 488.4262   L 485.1524 490.2010   A 1.14 1.14 0.0 0 0 486.4665 491.1350   L 490.1739 490.5079   A 1.14 1.14 0.0 0 0 491.1078 489.1938   L 490.8076 487.4190"/>
<path stroke="#bae075" d="M 499.03 495.65   L 499.78 498.28   A 0.97 0.97 0.0 0 0 500.98 498.95   L 504.31 498.01   A 2.20 2.06 -15.8 0 0 505.87 495.43   L 505.72 494.89   A 2.20 2.06 -15.8 0 0 503.04 493.50   L 499.70 494.45   A 0.97 0.97 0.0 0 0 499.03 495.65"/>
<path stroke="#bae075" d="M 491.1981 496.9939   A 0.99 0.99 0.0 0 0 489.9724 496.3173   L 486.0908 497.4376   A 0.99 0.99 0.0 0 0 485.4142 498.6634   L 486.1019 501.0461   A 0.99 0.99 0.0 0 0 487.3276 501.7227   L 491.2092 500.6024   A 0.99 0.99 0.0 0 0 491.8858 499.3766   L 491.1981 496.9939"/>
<path stroke="#bae075" d="M 459.81 488.80   A 0.92 0.92 0.0 0 0 459.08 489.76   L 459.57 497.34   A 0.92 0.92 0.0 0 0 460.68 498.18   L 464.13 497.45   A 0.92 0.92 0.0 0 0 464.86 496.50   L 464.38 488.91   A 0.92 0.92 0.0 0 0 463.27 488.07   L 459.81 488.80"/>
<path stroke="#bae075" d="M 461.02 504.69   A 1.23 1.23 0.0 0 0 460.05 505.97   L 460.49 512.83   A 1.23 1.23 0.0 0 0 461.97 513.95   L 465.08 513.29   A 1.23 1.23 0.0 0 0 466.05 512.01   L 465.62 505.16   A 1.23 1.23 0.0 0 0 464.14 504.03   L 461.02 504.69"/>
<path stroke="#bae075" d="M 466.53 529.00   A 0.80 0.80 0.0 0 0 466.99 528.23   L 466.50 520.64   A 0.80 0.80 0.0 0 0 465.53 519.91   L 461.75 520.72   A 0.80 0.80 0.0 0 0 461.11 521.55   L 461.66 530.08   A 0.80 0.80 0.0 0 0 462.79 530.75   L 466.53 529.00"/>
<path stroke="#bae075" d="M 266.01 553.84   A 0.21 0.21 0.0 0 0 266.23 554.15   L 275.39 552.20   A 0.72 0.71 59.1 0 0 275.70 550.95   L 272.37 548.15   A 2.27 2.26 35.0 0 0 268.95 548.75   L 266.01 553.84"/>
<path stroke="#bae075" d="M 261.72 562.25   L 263.45 562.60   A 0.92 0.91 -83.6 0 1 264.18 563.52   L 264.05 567.19   A 0.48 0.48 0.0 0 0 264.63 567.67   L 274.33 565.62   A 1.48 1.47 -7.2 0 0 275.50 564.12   L 275.33 559.83   A 1.26 1.26 0.0 0 0 273.81 558.64   L 261.72 561.21   A 0.53 0.53 0.0 0 0 261.72 562.25"/>
<path stroke="#bae075" d="M 412.51 553.94   A 0.89 0.89 0.0 0 0 413.59 554.76   L 431.57 550.94   A 0.89 0.89 0.0 0 0 432.27 550.01   L 431.20 533.18   A 0.89 0.89 0.0 0 0 430.12 532.36   L 412.14 536.17   A 0.89 0.89 0.0 0 0 411.44 537.10   L 412.51 553.94"/>
<path stroke="#bae075" d="M 235.52 537.05   A 1.13 1.13 0.0 0 0 234.63 538.20   L 235.00 547.66   A 1.13 1.13 0.0 0 0 236.36 548.72   L 239.16 548.13   A 1.13 1.13 0.0 0 0 240.05 546.98   L 239.68 537.52   A 1.13 1.13 0.0 0 0 238.32 536.46   L 235.52 537.05"/>
<path stroke="#bae075" d="M 240.0940 555.5047   A 0.70 0.70 0.0 0 0 239.3807 554.8183   L 235.9613 554.8840   A 0.70 0.70 0.0 0 0 235.2749 555.5973   L 235.4860 566.5953   A 0.70 0.70 0.0 0 0 236.1993 567.2817   L 239.6187 567.2160   A 0.70 0.70 0.0 0 0 240.3051 566.5027   L 240.0940 555.5047"/>
</g>
<path xmlns="http://www.w3.org/2000/svg" fill="#0052d9" d="M 640.00 0.00   L 640.00 415.44   Q 640.12 414.13 636.93 415.90   A 2.72 2.66 24.6 0 1 636.12 416.19   Q 617.57 419.82 598.80 423.77   Q 588.30 425.98 585.62 426.66   C 581.78 427.64 577.78 428.11 574.01 428.91   Q 558.62 432.16 531.95 437.72   Q 490.01 446.46 481.00 448.44   Q 468.36 451.22 460.29 452.66   C 453.59 453.86 449.06 455.17 443.01 456.43   Q 442.76 456.48 441.96 456.95   Q 441.25 457.36 440.92 456.82   Q 460.65 428.74 462.94 394.84   A 0.33 0.33 0.0 0 1 463.55 394.69   Q 471.47 407.49 481.02 420.23   C 486.00 426.88 491.83 434.70 498.75 438.31   Q 502.30 440.17 503.88 436.35   Q 506.22 430.66 506.32 424.99   Q 506.50 413.54 505.61 406.42   Q 503.34 388.26 499.04 371.97   Q 491.21 342.35 478.35 309.94   Q 466.37 279.74 460.39 265.18   Q 458.68 261.02 458.76 258.99   Q 459.66 236.37 457.01 213.06   C 456.09 204.96 454.22 195.92 452.68 189.04   C 447.10 164.09 436.19 138.98 419.76 119.06   C 395.33 89.43 360.59 74.81 322.50 74.44   Q 301.16 74.23 283.60 78.68   C 204.12 98.82 178.27 183.12 180.63 255.97   C 180.75 259.70 180.21 262.54 178.85 265.83   Q 169.98 287.15 157.67 318.88   C 147.11 346.13 138.34 374.91 134.25 403.47   Q 132.45 416.04 133.71 429.56   C 133.96 432.30 134.86 435.48 136.51 437.79   A 2.59 2.57 64.0 0 0 139.34 438.77   C 144.07 437.35 148.75 432.32 151.83 428.58   Q 164.25 413.50 174.49 396.99   Q 175.47 395.40 176.47 394.49   A 0.26 0.25 -20.6 0 1 176.90 394.68   Q 176.84 400.59 177.90 406.92   C 182.68 435.60 198.19 461.62 220.17 480.67   A 0.51 0.51 0.0 0 1 219.98 481.54   Q 204.86 485.97 190.91 493.90   C 184.84 497.34 178.46 503.06 180.97 510.90   Q 180.54 511.43 179.81 511.57   Q 142.87 518.95 102.11 527.64   C 100.78 527.92 98.92 527.73 97.70 528.69   A 1.00 0.99 33.2 0 1 96.85 528.86   Q 96.35 528.72 87.29 530.75   Q 80.51 532.27 77.84 532.77   Q 67.85 534.64 44.33 539.71   Q 43.53 539.89 22.12 544.28   Q 10.98 546.56 0.00 549.28   L 0.00 0.00   L 640.00 0.00   Z"/>
<path xmlns="http://www.w3.org/2000/svg" fill="#ffffff" d="M 440.92 456.82   L 180.97 510.90   C 178.46 503.06 184.84 497.34 190.91 493.90   Q 204.86 485.97 219.98 481.54   A 0.51 0.51 0.0 0 0 220.17 480.67   C 198.19 461.62 182.68 435.60 177.90 406.92   Q 176.84 400.59 176.90 394.68   A 0.26 0.25 -20.6 0 0 176.47 394.49   Q 175.47 395.40 174.49 396.99   Q 164.25 413.50 151.83 428.58   C 148.75 432.32 144.07 437.35 139.34 438.77   A 2.59 2.57 64.0 0 1 136.51 437.79   C 134.86 435.48 133.96 432.30 133.71 429.56   Q 132.45 416.04 134.25 403.47   C 138.34 374.91 147.11 346.13 157.67 318.88   Q 169.98 287.15 178.85 265.83   C 180.21 262.54 180.75 259.70 180.63 255.97   C 178.27 183.12 204.12 98.82 283.60 78.68   Q 301.16 74.23 322.50 74.44   C 360.59 74.81 395.33 89.43 419.76 119.06   C 436.19 138.98 447.10 164.09 452.68 189.04   C 454.22 195.92 456.09 204.96 457.01 213.06   Q 459.66 236.37 458.76 258.99   Q 458.68 261.02 460.39 265.18   Q 466.37 279.74 478.35 309.94   Q 491.21 342.35 499.04 371.97   Q 503.34 388.26 505.61 406.42   Q 506.50 413.54 506.32 424.99   Q 506.22 430.66 503.88 436.35   Q 502.30 440.17 498.75 438.31   C 491.83 434.70 486.00 426.88 481.02 420.23   Q 471.47 407.49 463.55 394.69   A 0.33 0.33 0.0 0 0 462.94 394.84   Q 460.65 428.74 440.92 456.82   Z"/>
<path xmlns="http://www.w3.org/2000/svg" fill="#79c000" d="M 640.00 415.44   Q 640.00 415.53 640.00 415.61   Q 639.35 416.93 640.00 417.75   L 640.00 640.00   L 0.00 640.00   L 0.00 549.28   Q 10.98 546.56 22.12 544.28   Q 43.53 539.89 44.33 539.71   Q 67.85 534.64 77.84 532.77   Q 80.51 532.27 87.29 530.75   Q 96.35 528.72 96.85 528.86   A 1.00 0.99 33.2 0 0 97.70 528.69   C 98.92 527.73 100.78 527.92 102.11 527.64   Q 142.87 518.95 179.81 511.57   Q 180.54 511.43 180.97 510.90   L 440.92 456.82   Q 441.25 457.36 441.96 456.95   Q 442.76 456.48 443.01 456.43   C 449.06 455.17 453.59 453.86 460.29 452.66   Q 468.36 451.22 481.00 448.44   Q 490.01 446.46 531.95 437.72   Q 558.62 432.16 574.01 428.91   C 577.78 428.11 581.78 427.64 585.62 426.66   Q 588.30 425.98 598.80 423.77   Q 617.57 419.82 636.12 416.19   A 2.72 2.66 24.6 0 0 636.93 415.90   Q 640.12 414.13 640.00 415.44   Z   M 479.07 509.47   L 513.18 502.24   A 0.78 0.77 82.3 0 0 513.79 501.43   L 512.33 478.71   A 1.97 1.97 0.0 0 0 511.59 477.28   C 509.33 475.49 503.42 477.19 499.31 478.02   A 1.01 1.01 0.0 0 1 498.10 477.09   L 497.89 473.81   A 1.00 0.99 82.0 0 0 496.69 472.90   L 490.82 474.14   A 1.09 1.08 -8.0 0 0 489.96 475.27   L 490.23 479.40   A 0.74 0.73 82.3 0 1 489.65 480.17   L 477.34 482.78   A 0.72 0.72 0.0 0 0 476.77 483.53   L 478.40 508.96   A 0.56 0.56 0.0 0 0 479.07 509.47   Z   M 474.41 524.41   L 472.02 487.08   A 0.97 0.96 -8.3 0 1 472.78 486.07   L 474.08 485.80   A 1.25 1.25 0.0 0 0 475.07 484.50   L 474.77 479.87   A 0.80 0.80 0.0 0 0 473.81 479.14   L 447.18 484.79   A 0.34 0.33 -7.9 0 0 446.91 485.14   L 447.30 491.17   A 0.20 0.20 0.0 0 0 447.58 491.35   Q 451.13 489.88 451.29 491.50   Q 453.22 510.64 453.98 534.10   A 1.22 1.21 69.4 0 1 453.54 535.08   Q 452.99 535.53 451.95 535.76   A 1.60 1.60 0.0 0 0 450.69 537.36   L 450.79 542.37   A 0.79 0.79 0.0 0 0 451.92 543.07   L 466.50 536.23   A 0.68 0.67 -14.3 0 1 467.46 536.80   L 468.23 548.81   A 0.86 0.86 0.0 0 0 469.26 549.59   L 475.12 548.35   A 1.30 1.29 82.3 0 0 476.14 547.00   L 475.24 532.99   A 1.52 1.51 -14.5 0 1 476.11 531.52   L 478.35 530.47   A 1.29 1.29 0.0 0 0 479.09 529.27   L 478.98 523.96   A 0.63 0.62 -9.8 0 0 478.15 523.38   Q 476.71 523.87 475.83 524.89   A 0.81 0.81 0.0 0 1 474.41 524.41   Z   M 390.34 496.19   A 0.50 0.50 0.0 0 0 389.74 495.74   L 382.53 497.26   A 0.53 0.52 -8.5 0 0 382.12 497.80   L 382.99 511.36   A 0.85 0.84 82.2 0 1 382.32 512.25   L 374.73 513.86   A 1.21 1.21 0.0 0 0 373.77 515.09   L 373.96 519.96   A 0.98 0.98 0.0 0 0 375.14 520.88   L 382.48 519.32   A 1.00 1.00 0.0 0 1 383.68 520.23   L 384.56 534.07   A 0.80 0.80 0.0 0 1 384.09 534.86   L 375.55 538.88   A 1.29 1.29 0.0 0 0 375.03 540.78   L 377.89 544.92   A 1.40 1.39 -29.8 0 0 379.63 545.39   L 384.39 543.16   A 0.54 0.54 0.0 0 1 385.16 543.61   L 386.18 559.46   A 0.79 0.79 0.0 0 1 385.55 560.28   L 378.14 561.86   A 1.02 1.02 0.0 0 0 377.50 563.42   L 379.87 566.99   A 2.29 2.28 -22.9 0 0 382.24 567.95   L 394.47 565.36   A 0.62 0.62 0.0 0 0 394.96 564.72   L 393.32 539.24   A 2.07 2.07 0.0 0 1 394.51 537.23   L 399.56 534.86   A 1.47 1.46 75.9 0 0 400.40 533.44   L 400.11 529.05   A 1.56 1.56 0.0 0 1 401.34 527.43   L 410.62 525.47   A 1.56 1.56 0.0 0 0 411.71 524.58   C 415.01 517.12 416.64 510.03 419.27 499.16   A 2.59 2.57 0.7 0 1 421.24 497.25   L 429.32 495.54   A 0.88 0.88 0.0 0 1 430.38 496.37   L 431.05 513.69   A 1.32 1.32 0.0 0 1 430.00 515.03   L 419.33 517.29   A 0.59 0.59 0.0 0 0 418.92 518.12   L 420.70 521.91   A 1.87 1.86 71.4 0 0 422.78 522.95   L 439.71 519.36   A 0.28 0.27 82.5 0 0 439.92 519.08   L 438.09 490.66   A 1.74 1.73 29.9 0 0 437.90 489.96   Q 436.69 487.67 433.21 488.24   Q 430.84 488.62 399.34 495.20   A 0.96 0.96 0.0 0 0 398.67 496.54   L 400.19 499.78   A 2.23 2.22 -18.6 0 0 402.67 501.01   L 409.85 499.49   A 0.82 0.82 0.0 0 1 410.83 500.42   Q 408.81 512.46 403.08 523.58   Q 401.83 526.00 399.98 526.57   C 397.49 527.34 396.68 527.87 393.95 529.75   A 0.95 0.94 70.8 0 1 392.47 529.03   L 391.76 517.96   A 0.67 0.67 0.0 0 1 392.29 517.26   L 398.98 515.84   A 0.99 0.99 0.0 0 0 399.75 514.66   L 398.66 509.53   A 0.69 0.68 -11.9 0 0 397.85 509.01   L 391.96 510.26   A 0.63 0.62 82.5 0 1 391.21 509.68   L 390.34 496.19   Z   M 370.39 562.76   L 363.30 564.26   A 0.76 0.75 83.0 0 1 362.39 563.54   Q 361.96 545.67 360.60 508.76   Q 360.54 507.18 359.94 505.51   A 1.07 1.06 -2.6 0 0 359.20 504.84   Q 357.36 504.37 356.20 504.60   Q 340.50 507.67 319.71 512.30   A 0.71 0.71 0.0 0 0 319.22 513.30   L 321.42 517.99   A 1.22 1.22 0.0 0 0 322.79 518.67   L 350.83 512.73   A 0.85 0.85 0.0 0 1 351.86 513.54   L 352.51 530.26   A 1.34 1.33 83.1 0 1 351.45 531.62   L 341.76 533.68   A 0.80 0.79 -6.7 0 1 340.80 532.93   L 340.49 524.98   A 2.86 2.84 14.0 0 0 339.06 522.62   L 333.26 519.27   A 0.99 0.99 0.0 0 0 331.78 520.16   L 332.34 534.69   A 1.17 1.17 0.0 0 1 331.41 535.88   L 323.15 537.63   A 1.30 1.29 -7.2 0 0 322.13 538.94   L 322.32 543.68   A 0.80 0.80 0.0 0 0 323.28 544.44   L 331.48 542.70   A 0.88 0.87 -7.2 0 1 332.54 543.52   L 333.83 577.00   A 0.92 0.92 0.0 0 0 334.94 577.86   L 341.11 576.55   A 1.44 1.44 0.0 0 0 342.25 575.08   L 340.98 542.01   A 1.44 1.44 0.0 0 1 342.12 540.54   L 351.68 538.51   A 0.91 0.90 -7.0 0 1 352.77 539.36   L 354.07 573.11   A 0.65 0.64 -7.2 0 0 354.85 573.71   L 368.72 570.77   A 2.73 2.72 89.9 0 0 370.82 568.65   L 371.74 564.09   A 1.14 1.13 -0.4 0 0 370.39 562.76   Z   M 484.45 529.39   L 503.75 525.30   A 1.57 1.57 0.0 0 1 505.65 526.78   L 505.91 533.43   A 1.71 1.71 0.0 0 1 504.56 535.16   L 491.75 537.88   A 1.18 1.17 -22.8 0 0 491.01 539.68   L 493.00 542.70   A 2.77 2.75 67.2 0 0 495.87 543.88   L 513.32 540.18   A 0.91 0.90 -7.2 0 0 514.04 539.26   Q 513.69 530.57 512.81 520.73   Q 512.79 520.44 512.25 518.54   A 2.05 2.05 0.0 0 0 509.85 517.10   L 492.89 520.69   A 1.23 1.22 -7.2 0 1 491.41 519.55   L 491.38 518.64   A 1.79 1.79 0.0 0 1 492.80 516.82   L 517.01 511.68   A 0.22 0.22 0.0 0 0 517.19 511.46   L 516.95 505.43   A 0.47 0.47 0.0 0 0 516.39 504.99   L 477.00 513.34   A 1.29 1.27 -7.3 0 0 475.99 514.63   L 476.17 519.26   A 0.89 0.88 -7.1 0 0 477.24 520.09   L 482.63 518.95   A 0.71 0.71 0.0 0 1 483.49 519.62   L 483.85 528.92   A 0.50 0.50 0.0 0 0 484.45 529.39   Z   M 309.21 528.31   A 1.14 1.14 0.0 0 0 310.51 529.02   L 316.98 527.65   A 1.14 1.14 0.0 0 0 317.78 526.05   L 311.61 512.92   A 1.14 1.14 0.0 0 0 310.35 512.29   L 304.89 513.44   A 1.14 1.14 0.0 0 0 304.06 514.97   L 309.21 528.31   Z   M 256.05 564.19   L 256.48 575.40   A 0.37 0.37 0.0 0 0 256.93 575.75   L 282.39 570.35   A 0.94 0.94 0.0 0 1 283.53 571.23   L 283.89 580.35   A 2.06 2.06 0.0 0 1 282.26 582.44   L 269.83 585.08   A 0.73 0.73 0.0 0 0 269.32 586.10   L 271.24 590.20   A 1.44 1.43 -18.4 0 0 272.83 590.99   L 291.66 586.99   A 0.92 0.91 -7.1 0 0 292.39 586.06   L 291.57 564.74   A 2.27 2.26 82.8 0 0 288.84 562.61   L 284.17 563.60   A 0.84 0.83 82.8 0 1 283.16 562.81   L 282.92 556.49   A 0.46 0.45 -85.6 0 1 283.46 556.02   L 292.12 557.77   A 1.40 1.39 -83.2 0 0 293.79 556.45   L 293.96 551.51   A 1.40 1.40 0.0 0 0 292.56 550.06   Q 286.72 550.07 281.40 546.68   A 0.71 0.71 0.0 0 1 281.63 545.39   L 291.01 543.40   A 1.10 1.09 82.9 0 0 291.88 542.28   L 291.70 537.58   A 0.54 0.54 0.0 0 0 291.05 537.07   L 272.92 540.91   A 0.79 0.79 0.0 0 1 271.98 539.97   L 272.22 538.76   A 1.83 1.82 89.8 0 1 273.62 537.34   L 287.86 534.32   A 1.39 1.39 0.0 0 0 288.97 532.90   L 288.81 528.71   A 0.60 0.59 -88.4 0 0 288.28 528.14   Q 286.39 527.92 284.78 528.70   A 0.69 0.69 0.0 0 1 283.81 527.94   L 285.52 519.53   A 0.16 0.15 -88.4 0 0 285.35 519.34   L 277.55 520.40   A 0.33 0.32 -2.4 0 0 277.27 520.69   Q 276.85 525.76 275.61 529.41   Q 275.12 530.84 273.39 530.91   A 0.46 0.46 0.0 0 1 272.91 530.47   L 272.54 520.86   A 0.39 0.39 0.0 0 0 272.07 520.50   L 264.29 522.15   A 0.45 0.44 78.7 0 0 263.95 522.67   Q 264.91 528.02 264.37 532.63   A 0.82 0.82 0.0 0 1 263.42 533.34   Q 262.75 533.24 262.35 532.68   Q 260.56 530.21 258.98 525.72   A 1.32 1.31 -15.5 0 0 257.46 524.87   L 251.47 526.14   A 0.98 0.98 0.0 0 0 250.78 527.51   L 253.91 534.16   A 0.75 0.75 0.0 0 1 253.38 535.21   L 250.12 535.91   A 1.51 1.51 0.0 0 0 248.92 537.45   L 249.08 541.61   A 0.84 0.83 -6.9 0 0 250.09 542.40   L 262.72 539.72   A 0.85 0.85 0.0 0 1 263.74 540.59   L 263.72 541.39   A 1.82 1.82 0.0 0 1 262.27 543.11   L 250.67 545.57   A 1.74 1.74 0.0 0 0 249.30 547.22   L 249.17 550.79   A 1.16 1.16 0.0 0 0 250.57 551.96   L 259.02 550.17   A 0.57 0.57 0.0 0 1 259.56 551.11   Q 255.58 555.50 250.57 558.22   A 2.49 2.48 -15.5 0 0 249.27 560.50   L 249.47 565.81   A 0.67 0.67 0.0 0 0 250.42 566.39   L 255.63 563.94   A 0.30 0.29 -13.7 0 1 256.05 564.19   Z   M 405.24 563.14   L 440.78 555.61   A 0.66 0.66 0.0 0 0 441.30 554.94   Q 440.60 539.62 439.31 527.05   Q 438.99 523.93 435.91 524.59   Q 410.13 530.11 403.82 531.24   A 1.47 1.47 0.0 0 0 402.61 532.78   L 404.52 562.60   A 0.60 0.59 81.7 0 0 405.24 563.14   Z   M 240.40 573.96   L 241.30 597.05   A 0.45 0.45 0.0 0 0 241.84 597.47   L 248.23 596.12   A 0.89 0.88 83.7 0 0 248.93 595.24   Q 248.46 569.72 246.75 531.01   Q 246.65 528.79 244.51 528.87   C 238.67 529.11 233.32 530.58 227.21 532.11   A 0.70 0.70 0.0 0 0 226.68 532.84   Q 228.54 560.75 228.04 589.00   Q 227.96 593.39 227.25 599.44   A 0.85 0.84 87.5 0 0 228.26 600.37   L 234.19 599.11   A 1.46 1.45 -5.1 0 0 235.34 597.74   L 236.11 574.94   A 0.89 0.88 -5.0 0 1 236.82 574.10   L 239.78 573.47   A 0.52 0.51 83.0 0 1 240.40 573.96   Z   M 309.11 581.96   A 0.57 0.57 0.0 0 0 310.05 582.38   Q 316.60 576.65 323.69 568.46   C 326.64 565.05 326.20 560.72 325.79 556.36   A 0.52 0.51 -27.7 0 0 324.88 556.08   L 318.88 563.24   A 0.74 0.74 0.0 0 1 317.58 562.79   L 316.42 532.61   A 0.93 0.92 -7.1 0 0 315.30 531.74   L 301.48 534.67   A 1.68 1.67 83.0 0 0 300.16 536.37   L 300.34 540.97   A 0.96 0.96 0.0 0 0 301.50 541.87   L 307.30 540.64   A 0.82 0.82 0.0 0 1 308.29 541.43   L 309.11 581.96   Z   M 279.44 574.97   A 0.94 0.94 0.0 0 0 278.31 574.09   L 252.14 579.63   A 0.94 0.94 0.0 0 0 251.46 580.89   L 253.03 584.99   A 0.94 0.94 0.0 0 0 254.10 585.57   L 278.87 580.32   A 0.94 0.94 0.0 0 0 279.61 579.37   L 279.44 574.97   Z"/>
<path xmlns="http://www.w3.org/2000/svg" fill="#0052d9" d="M 640.00 415.61   L 640.00 417.75   Q 639.35 416.93 640.00 415.61   Z"/>
<path xmlns="http://www.w3.org/2000/svg" fill="#fbffe9" d="M 479.07 509.47   A 0.56 0.56 0.0 0 1 478.40 508.96   L 476.77 483.53   A 0.72 0.72 0.0 0 1 477.34 482.78   L 489.65 480.17   A 0.74 0.73 82.3 0 0 490.23 479.40   L 489.96 475.27   A 1.09 1.08 -8.0 0 1 490.82 474.14   L 496.69 472.90   A 1.00 0.99 82.0 0 1 497.89 473.81   L 498.10 477.09   A 1.01 1.01 0.0 0 0 499.31 478.02   C 503.42 477.19 509.33 475.49 511.59 477.28   A 1.97 1.97 0.0 0 1 512.33 478.71   L 513.79 501.43   A 0.78 0.77 82.3 0 1 513.18 502.24   L 479.07 509.47   Z   M 504.8266 484.5372   A 1.24 1.24 0.0 0 0 503.3727 483.5566   L 499.5640 484.2969   A 1.24 1.24 0.0 0 0 498.5834 485.7507   L 498.8734 487.2428   A 1.24 1.24 0.0 0 0 500.3273 488.2234   L 504.1360 487.4831   A 1.24 1.24 0.0 0 0 505.1166 486.0293   L 504.8266 484.5372   Z   M 490.8076 487.4190   A 1.14 1.14 0.0 0 0 489.4935 486.4850   L 485.7861 487.1121   A 1.14 1.14 0.0 0 0 484.8522 488.4262   L 485.1524 490.2010   A 1.14 1.14 0.0 0 0 486.4665 491.1350   L 490.1739 490.5079   A 1.14 1.14 0.0 0 0 491.1078 489.1938   L 490.8076 487.4190   Z   M 499.03 495.65   L 499.78 498.28   A 0.97 0.97 0.0 0 0 500.98 498.95   L 504.31 498.01   A 2.20 2.06 -15.8 0 0 505.87 495.43   L 505.72 494.89   A 2.20 2.06 -15.8 0 0 503.04 493.50   L 499.70 494.45   A 0.97 0.97 0.0 0 0 499.03 495.65   Z   M 491.1981 496.9939   A 0.99 0.99 0.0 0 0 489.9724 496.3173   L 486.0908 497.4376   A 0.99 0.99 0.0 0 0 485.4142 498.6634   L 486.1019 501.0461   A 0.99 0.99 0.0 0 0 487.3276 501.7227   L 491.2092 500.6024   A 0.99 0.99 0.0 0 0 491.8858 499.3766   L 491.1981 496.9939   Z"/>
<path xmlns="http://www.w3.org/2000/svg" fill="#fbffe9" d="M 474.41 524.41   A 0.81 0.81 0.0 0 0 475.83 524.89   Q 476.71 523.87 478.15 523.38   A 0.63 0.62 -9.8 0 1 478.98 523.96   L 479.09 529.27   A 1.29 1.29 0.0 0 1 478.35 530.47   L 476.11 531.52   A 1.52 1.51 -14.5 0 0 475.24 532.99   L 476.14 547.00   A 1.30 1.29 82.3 0 1 475.12 548.35   L 469.26 549.59   A 0.86 0.86 0.0 0 1 468.23 548.81   L 467.46 536.80   A 0.68 0.67 -14.3 0 0 466.50 536.23   L 451.92 543.07   A 0.79 0.79 0.0 0 1 450.79 542.37   L 450.69 537.36   A 1.60 1.60 0.0 0 1 451.95 535.76   Q 452.99 535.53 453.54 535.08   A 1.22 1.21 69.4 0 0 453.98 534.10   Q 453.22 510.64 451.29 491.50   Q 451.13 489.88 447.58 491.35   A 0.20 0.20 0.0 0 1 447.30 491.17   L 446.91 485.14   A 0.34 0.33 -7.9 0 1 447.18 484.79   L 473.81 479.14   A 0.80 0.80 0.0 0 1 474.77 479.87   L 475.07 484.50   A 1.25 1.25 0.0 0 1 474.08 485.80   L 472.78 486.07   A 0.97 0.96 -8.3 0 0 472.02 487.08   L 474.41 524.41   Z   M 459.81 488.80   A 0.92 0.92 0.0 0 0 459.08 489.76   L 459.57 497.34   A 0.92 0.92 0.0 0 0 460.68 498.18   L 464.13 497.45   A 0.92 0.92 0.0 0 0 464.86 496.50   L 464.38 488.91   A 0.92 0.92 0.0 0 0 463.27 488.07   L 459.81 488.80   Z   M 461.02 504.69   A 1.23 1.23 0.0 0 0 460.05 505.97   L 460.49 512.83   A 1.23 1.23 0.0 0 0 461.97 513.95   L 465.08 513.29   A 1.23 1.23 0.0 0 0 466.05 512.01   L 465.62 505.16   A 1.23 1.23 0.0 0 0 464.14 504.03   L 461.02 504.69   Z   M 466.53 529.00   A 0.80 0.80 0.0 0 0 466.99 528.23   L 466.50 520.64   A 0.80 0.80 0.0 0 0 465.53 519.91   L 461.75 520.72   A 0.80 0.80 0.0 0 0 461.11 521.55   L 461.66 530.08   A 0.80 0.80 0.0 0 0 462.79 530.75   L 466.53 529.00   Z"/>
<rect xmlns="http://www.w3.org/2000/svg" fill="#79c000" x="-3.18" y="-2.00" transform="translate(501.85,485.89) rotate(-11.0)" width="6.36" height="4.00" rx="1.24"/>
<rect xmlns="http://www.w3.org/2000/svg" fill="#79c000" x="-3.02" y="-2.04" transform="translate(487.98,488.81) rotate(-9.6)" width="6.04" height="4.08" rx="1.14"/>
<path xmlns="http://www.w3.org/2000/svg" fill="#79c000" d="M 459.81 488.80   L 463.27 488.07   A 0.92 0.92 0.0 0 1 464.38 488.91   L 464.86 496.50   A 0.92 0.92 0.0 0 1 464.13 497.45   L 460.68 498.18   A 0.92 0.92 0.0 0 1 459.57 497.34   L 459.08 489.76   A 0.92 0.92 0.0 0 1 459.81 488.80   Z"/>
<path xmlns="http://www.w3.org/2000/svg" fill="#fbffe9" d="M 390.34 496.19   L 391.21 509.68   A 0.63 0.62 82.5 0 0 391.96 510.26   L 397.85 509.01   A 0.69 0.68 -11.9 0 1 398.66 509.53   L 399.75 514.66   A 0.99 0.99 0.0 0 1 398.98 515.84   L 392.29 517.26   A 0.67 0.67 0.0 0 0 391.76 517.96   L 392.47 529.03   A 0.95 0.94 70.8 0 0 393.95 529.75   C 396.68 527.87 397.49 527.34 399.98 526.57   Q 401.83 526.00 403.08 523.58   Q 408.81 512.46 410.83 500.42   A 0.82 0.82 0.0 0 0 409.85 499.49   L 402.67 501.01   A 2.23 2.22 -18.6 0 1 400.19 499.78   L 398.67 496.54   A 0.96 0.96 0.0 0 1 399.34 495.20   Q 430.84 488.62 433.21 488.24   Q 436.69 487.67 437.90 489.96   A 1.74 1.73 29.9 0 1 438.09 490.66   L 439.92 519.08   A 0.28 0.27 82.5 0 1 439.71 519.36   L 422.78 522.95   A 1.87 1.86 71.4 0 1 420.70 521.91   L 418.92 518.12   A 0.59 0.59 0.0 0 1 419.33 517.29   L 430.00 515.03   A 1.32 1.32 0.0 0 0 431.05 513.69   L 430.38 496.37   A 0.88 0.88 0.0 0 0 429.32 495.54   L 421.24 497.25   A 2.59 2.57 0.7 0 0 419.27 499.16   C 416.64 510.03 415.01 517.12 411.71 524.58   A 1.56 1.56 0.0 0 1 410.62 525.47   L 401.34 527.43   A 1.56 1.56 0.0 0 0 400.11 529.05   L 400.40 533.44   A 1.47 1.46 75.9 0 1 399.56 534.86   L 394.51 537.23   A 2.07 2.07 0.0 0 0 393.32 539.24   L 394.96 564.72   A 0.62 0.62 0.0 0 1 394.47 565.36   L 382.24 567.95   A 2.29 2.28 -22.9 0 1 379.87 566.99   L 377.50 563.42   A 1.02 1.02 0.0 0 1 378.14 561.86   L 385.55 560.28   A 0.79 0.79 0.0 0 0 386.18 559.46   L 385.16 543.61   A 0.54 0.54 0.0 0 0 384.39 543.16   L 379.63 545.39   A 1.40 1.39 -29.8 0 1 377.89 544.92   L 375.03 540.78   A 1.29 1.29 0.0 0 1 375.55 538.88   L 384.09 534.86   A 0.80 0.80 0.0 0 0 384.56 534.07   L 383.68 520.23   A 1.00 1.00 0.0 0 0 382.48 519.32   L 375.14 520.88   A 0.98 0.98 0.0 0 1 373.96 519.96   L 373.77 515.09   A 1.21 1.21 0.0 0 1 374.73 513.86   L 382.32 512.25   A 0.85 0.84 82.2 0 0 382.99 511.36   L 382.12 497.80   A 0.53 0.52 -8.5 0 1 382.53 497.26   L 389.74 495.74   A 0.50 0.50 0.0 0 1 390.34 496.19   Z"/>
<path xmlns="http://www.w3.org/2000/svg" fill="#79c000" d="M 499.03 495.65   A 0.97 0.97 0.0 0 1 499.70 494.45   L 503.04 493.50   A 2.20 2.06 -15.8 0 1 505.72 494.89   L 505.87 495.43   A 2.20 2.06 -15.8 0 1 504.31 498.01   L 500.98 498.95   A 0.97 0.97 0.0 0 1 499.78 498.28   L 499.03 495.65   Z"/>
<rect xmlns="http://www.w3.org/2000/svg" fill="#79c000" x="-3.01" y="-2.23" transform="translate(488.65,499.02) rotate(-16.1)" width="6.02" height="4.46" rx="0.99"/>
<path xmlns="http://www.w3.org/2000/svg" fill="#79c000" d="M 461.02 504.69   L 464.14 504.03   A 1.23 1.23 0.0 0 1 465.62 505.16   L 466.05 512.01   A 1.23 1.23 0.0 0 1 465.08 513.29   L 461.97 513.95   A 1.23 1.23 0.0 0 1 460.49 512.83   L 460.05 505.97   A 1.23 1.23 0.0 0 1 461.02 504.69   Z"/>
<path xmlns="http://www.w3.org/2000/svg" fill="#fbffe9" d="M 370.39 562.76   A 1.14 1.13 -0.4 0 1 371.74 564.09   L 370.82 568.65   A 2.73 2.72 89.9 0 1 368.72 570.77   L 354.85 573.71   A 0.65 0.64 -7.2 0 1 354.07 573.11   L 352.77 539.36   A 0.91 0.90 -7.0 0 0 351.68 538.51   L 342.12 540.54   A 1.44 1.44 0.0 0 0 340.98 542.01   L 342.25 575.08   A 1.44 1.44 0.0 0 1 341.11 576.55   L 334.94 577.86   A 0.92 0.92 0.0 0 1 333.83 577.00   L 332.54 543.52   A 0.88 0.87 -7.2 0 0 331.48 542.70   L 323.28 544.44   A 0.80 0.80 0.0 0 1 322.32 543.68   L 322.13 538.94   A 1.30 1.29 -7.2 0 1 323.15 537.63   L 331.41 535.88   A 1.17 1.17 0.0 0 0 332.34 534.69   L 331.78 520.16   A 0.99 0.99 0.0 0 1 333.26 519.27   L 339.06 522.62   A 2.86 2.84 14.0 0 1 340.49 524.98   L 340.80 532.93   A 0.80 0.79 -6.7 0 0 341.76 533.68   L 351.45 531.62   A 1.34 1.33 83.1 0 0 352.51 530.26   L 351.86 513.54   A 0.85 0.85 0.0 0 0 350.83 512.73   L 322.79 518.67   A 1.22 1.22 0.0 0 1 321.42 517.99   L 319.22 513.30   A 0.71 0.71 0.0 0 1 319.71 512.30   Q 340.50 507.67 356.20 504.60   Q 357.36 504.37 359.20 504.84   A 1.07 1.06 -2.6 0 1 359.94 505.51   Q 360.54 507.18 360.60 508.76   Q 361.96 545.67 362.39 563.54   A 0.76 0.75 83.0 0 0 363.30 564.26   L 370.39 562.76   Z"/>
<path xmlns="http://www.w3.org/2000/svg" fill="#fbffe9" d="M 484.45 529.39   A 0.50 0.50 0.0 0 1 483.85 528.92   L 483.49 519.62   A 0.71 0.71 0.0 0 0 482.63 518.95   L 477.24 520.09   A 0.89 0.88 -7.1 0 1 476.17 519.26   L 475.99 514.63   A 1.29 1.27 -7.3 0 1 477.00 513.34   L 516.39 504.99   A 0.47 0.47 0.0 0 1 516.95 505.43   L 517.19 511.46   A 0.22 0.22 0.0 0 1 517.01 511.68   L 492.80 516.82   A 1.79 1.79 0.0 0 0 491.38 518.64   L 491.41 519.55   A 1.23 1.22 -7.2 0 0 492.89 520.69   L 509.85 517.10   A 2.05 2.05 0.0 0 1 512.25 518.54   Q 512.79 520.44 512.81 520.73   Q 513.69 530.57 514.04 539.26   A 0.91 0.90 -7.2 0 1 513.32 540.18   L 495.87 543.88   A 2.77 2.75 67.2 0 1 493.00 542.70   L 491.01 539.68   A 1.18 1.17 -22.8 0 1 491.75 537.88   L 504.56 535.16   A 1.71 1.71 0.0 0 0 505.91 533.43   L 505.65 526.78   A 1.57 1.57 0.0 0 0 503.75 525.30   L 484.45 529.39   Z"/>
<path xmlns="http://www.w3.org/2000/svg" fill="#fbffe9" d="M 309.21 528.31   L 304.06 514.97   A 1.14 1.14 0.0 0 1 304.89 513.44   L 310.35 512.29   A 1.14 1.14 0.0 0 1 311.61 512.92   L 317.78 526.05   A 1.14 1.14 0.0 0 1 316.98 527.65   L 310.51 529.02   A 1.14 1.14 0.0 0 1 309.21 528.31   Z"/>
<path xmlns="http://www.w3.org/2000/svg" fill="#fbffe9" d="M 255.63 563.94   L 250.42 566.39   A 0.67 0.67 0.0 0 1 249.47 565.81   L 249.27 560.50   A 2.49 2.48 -15.5 0 1 250.57 558.22   Q 255.58 555.50 259.56 551.11   A 0.57 0.57 0.0 0 0 259.02 550.17   L 250.57 551.96   A 1.16 1.16 0.0 0 1 249.17 550.79   L 249.30 547.22   A 1.74 1.74 0.0 0 1 250.67 545.57   L 262.27 543.11   A 1.82 1.82 0.0 0 0 263.72 541.39   L 263.74 540.59   A 0.85 0.85 0.0 0 0 262.72 539.72   L 250.09 542.40   A 0.84 0.83 -6.9 0 1 249.08 541.61   L 248.92 537.45   A 1.51 1.51 0.0 0 1 250.12 535.91   L 253.38 535.21   A 0.75 0.75 0.0 0 0 253.91 534.16   L 250.78 527.51   A 0.98 0.98 0.0 0 1 251.47 526.14   L 257.46 524.87   A 1.32 1.31 -15.5 0 1 258.98 525.72   Q 260.56 530.21 262.35 532.68   Q 262.75 533.24 263.42 533.34   A 0.82 0.82 0.0 0 0 264.37 532.63   Q 264.91 528.02 263.95 522.67   A 0.45 0.44 78.7 0 1 264.29 522.15   L 272.07 520.50   A 0.39 0.39 0.0 0 1 272.54 520.86   L 272.91 530.47   A 0.46 0.46 0.0 0 0 273.39 530.91   Q 275.12 530.84 275.61 529.41   Q 276.85 525.76 277.27 520.69   A 0.33 0.32 -2.4 0 1 277.55 520.40   L 285.35 519.34   A 0.16 0.15 -88.4 0 1 285.52 519.53   L 283.81 527.94   A 0.69 0.69 0.0 0 0 284.78 528.70   Q 286.39 527.92 288.28 528.14   A 0.60 0.59 -88.4 0 1 288.81 528.71   L 288.97 532.90   A 1.39 1.39 0.0 0 1 287.86 534.32   L 273.62 537.34   A 1.83 1.82 89.8 0 0 272.22 538.76   L 271.98 539.97   A 0.79 0.79 0.0 0 0 272.92 540.91   L 291.05 537.07   A 0.54 0.54 0.0 0 1 291.70 537.58   L 291.88 542.28   A 1.10 1.09 82.9 0 1 291.01 543.40   L 281.63 545.39   A 0.71 0.71 0.0 0 0 281.40 546.68   Q 286.72 550.07 292.56 550.06   A 1.40 1.40 0.0 0 1 293.96 551.51   L 293.79 556.45   A 1.40 1.39 -83.2 0 1 292.12 557.77   L 283.46 556.02   A 0.46 0.45 -85.6 0 0 282.92 556.49   L 283.16 562.81   A 0.84 0.83 82.8 0 0 284.17 563.60   L 288.84 562.61   A 2.27 2.26 82.8 0 1 291.57 564.74   L 292.39 586.06   A 0.92 0.91 -7.1 0 1 291.66 586.99   L 272.83 590.99   A 1.44 1.43 -18.4 0 1 271.24 590.20   L 269.32 586.10   A 0.73 0.73 0.0 0 1 269.83 585.08   L 282.26 582.44   A 2.06 2.06 0.0 0 0 283.89 580.35   L 283.53 571.23   A 0.94 0.94 0.0 0 0 282.39 570.35   L 256.93 575.75   A 0.37 0.37 0.0 0 1 256.48 575.40   L 256.05 564.19   A 0.30 0.29 -13.7 0 0 255.63 563.94   Z   M 266.01 553.84   A 0.21 0.21 0.0 0 0 266.23 554.15   L 275.39 552.20   A 0.72 0.71 59.1 0 0 275.70 550.95   L 272.37 548.15   A 2.27 2.26 35.0 0 0 268.95 548.75   L 266.01 553.84   Z   M 261.72 562.25   L 263.45 562.60   A 0.92 0.91 -83.6 0 1 264.18 563.52   L 264.05 567.19   A 0.48 0.48 0.0 0 0 264.63 567.67   L 274.33 565.62   A 1.48 1.47 -7.2 0 0 275.50 564.12   L 275.33 559.83   A 1.26 1.26 0.0 0 0 273.81 558.64   L 261.72 561.21   A 0.53 0.53 0.0 0 0 261.72 562.25   Z"/>
<path xmlns="http://www.w3.org/2000/svg" fill="#79c000" d="M 466.53 529.00   L 462.79 530.75   A 0.80 0.80 0.0 0 1 461.66 530.08   L 461.11 521.55   A 0.80 0.80 0.0 0 1 461.75 520.72   L 465.53 519.91   A 0.80 0.80 0.0 0 1 466.50 520.64   L 466.99 528.23   A 0.80 0.80 0.0 0 1 466.53 529.00   Z"/>
<path xmlns="http://www.w3.org/2000/svg" fill="#fbffe9" d="M 405.24 563.14   A 0.60 0.59 81.7 0 1 404.52 562.60   L 402.61 532.78   A 1.47 1.47 0.0 0 1 403.82 531.24   Q 410.13 530.11 435.91 524.59   Q 438.99 523.93 439.31 527.05   Q 440.60 539.62 441.30 554.94   A 0.66 0.66 0.0 0 1 440.78 555.61   L 405.24 563.14   Z   M 412.51 553.94   A 0.89 0.89 0.0 0 0 413.59 554.76   L 431.57 550.94   A 0.89 0.89 0.0 0 0 432.27 550.01   L 431.20 533.18   A 0.89 0.89 0.0 0 0 430.12 532.36   L 412.14 536.17   A 0.89 0.89 0.0 0 0 411.44 537.10   L 412.51 553.94   Z"/>
<path xmlns="http://www.w3.org/2000/svg" fill="#fbffe9" d="M 240.40 573.96   A 0.52 0.51 83.0 0 0 239.78 573.47   L 236.82 574.10   A 0.89 0.88 -5.0 0 0 236.11 574.94   L 235.34 597.74   A 1.46 1.45 -5.1 0 1 234.19 599.11   L 228.26 600.37   A 0.85 0.84 87.5 0 1 227.25 599.44   Q 227.96 593.39 228.04 589.00   Q 228.54 560.75 226.68 532.84   A 0.70 0.70 0.0 0 1 227.21 532.11   C 233.32 530.58 238.67 529.11 244.51 528.87   Q 246.65 528.79 246.75 531.01   Q 248.46 569.72 248.93 595.24   A 0.89 0.88 83.7 0 1 248.23 596.12   L 241.84 597.47   A 0.45 0.45 0.0 0 1 241.30 597.05   L 240.40 573.96   Z   M 235.52 537.05   A 1.13 1.13 0.0 0 0 234.63 538.20   L 235.00 547.66   A 1.13 1.13 0.0 0 0 236.36 548.72   L 239.16 548.13   A 1.13 1.13 0.0 0 0 240.05 546.98   L 239.68 537.52   A 1.13 1.13 0.0 0 0 238.32 536.46   L 235.52 537.05   Z   M 240.0940 555.5047   A 0.70 0.70 0.0 0 0 239.3807 554.8183   L 235.9613 554.8840   A 0.70 0.70 0.0 0 0 235.2749 555.5973   L 235.4860 566.5953   A 0.70 0.70 0.0 0 0 236.1993 567.2817   L 239.6187 567.2160   A 0.70 0.70 0.0 0 0 240.3051 566.5027   L 240.0940 555.5047   Z"/>
<path xmlns="http://www.w3.org/2000/svg" fill="#fbffe9" d="M 309.11 581.96   L 308.29 541.43   A 0.82 0.82 0.0 0 0 307.30 540.64   L 301.50 541.87   A 0.96 0.96 0.0 0 1 300.34 540.97   L 300.16 536.37   A 1.68 1.67 83.0 0 1 301.48 534.67   L 315.30 531.74   A 0.93 0.92 -7.1 0 1 316.42 532.61   L 317.58 562.79   A 0.74 0.74 0.0 0 0 318.88 563.24   L 324.88 556.08   A 0.52 0.51 -27.7 0 1 325.79 556.36   C 326.20 560.72 326.64 565.05 323.69 568.46   Q 316.60 576.65 310.05 582.38   A 0.57 0.57 0.0 0 1 309.11 581.96   Z"/>
<path xmlns="http://www.w3.org/2000/svg" fill="#79c000" d="M 412.51 553.94   L 411.44 537.10   A 0.89 0.89 0.0 0 1 412.14 536.17   L 430.12 532.36   A 0.89 0.89 0.0 0 1 431.20 533.18   L 432.27 550.01   A 0.89 0.89 0.0 0 1 431.57 550.94   L 413.59 554.76   A 0.89 0.89 0.0 0 1 412.51 553.94   Z"/>
<path xmlns="http://www.w3.org/2000/svg" fill="#79c000" d="M 235.52 537.05   L 238.32 536.46   A 1.13 1.13 0.0 0 1 239.68 537.52   L 240.05 546.98   A 1.13 1.13 0.0 0 1 239.16 548.13   L 236.36 548.72   A 1.13 1.13 0.0 0 1 235.00 547.66   L 234.63 538.20   A 1.13 1.13 0.0 0 1 235.52 537.05   Z"/>
<path xmlns="http://www.w3.org/2000/svg" fill="#79c000" d="M 266.01 553.84   L 268.95 548.75   A 2.27 2.26 35.0 0 1 272.37 548.15   L 275.70 550.95   A 0.72 0.71 59.1 0 1 275.39 552.20   L 266.23 554.15   A 0.21 0.21 0.0 0 1 266.01 553.84   Z"/>
<rect xmlns="http://www.w3.org/2000/svg" fill="#79c000" x="-2.41" y="-6.20" transform="translate(237.79,561.05) rotate(-1.1)" width="4.82" height="12.40" rx="0.70"/>
<path xmlns="http://www.w3.org/2000/svg" fill="#79c000" d="M 261.72 562.25   A 0.53 0.53 0.0 0 1 261.72 561.21   L 273.81 558.64   A 1.26 1.26 0.0 0 1 275.33 559.83   L 275.50 564.12   A 1.48 1.47 -7.2 0 1 274.33 565.62   L 264.63 567.67   A 0.48 0.48 0.0 0 1 264.05 567.19   L 264.18 563.52   A 0.92 0.91 -83.6 0 0 263.45 562.60   L 261.72 562.25   Z"/>
<path xmlns="http://www.w3.org/2000/svg" fill="#fbffe9" d="M 279.44 574.97   L 279.61 579.37   A 0.94 0.94 0.0 0 1 278.87 580.32   L 254.10 585.57   A 0.94 0.94 0.0 0 1 253.03 584.99   L 251.46 580.89   A 0.94 0.94 0.0 0 1 252.14 579.63   L 278.31 574.09   A 0.94 0.94 0.0 0 1 279.44 574.97   Z"/>
</g></g></g></g></svg>