<svg width="128" height="128" viewBox="0 0 128 128" fill="none" xmlns="http://www.w3.org/2000/svg">
<path fill-rule="evenodd" clip-rule="evenodd" d="M20 0H108C119.046 0 128 8.95424 128 19.9998V107.999C128 119.045 119.046 127.999 108 127.999H20C8.9543 127.999 0 119.045 0 107.999V19.9998C0 8.95424 8.9543 0 20 0Z" fill="#1E6FFF"/>
<path fill-rule="evenodd" clip-rule="evenodd" d="M86.4647 91.8585C87.2916 91.1833 88.0901 90.4749 88.8546 89.73C96.107 82.6648 100.102 72.9825 100.102 62.4663C100.102 61.3708 100.058 60.2885 99.9772 59.2185C104.173 62.5867 106.865 67.7524 106.865 73.5392C106.865 84.3443 99.0996 91.2413 86.4647 91.8585ZM46.3232 91.9084C37.9864 91.9084 31.2712 89.8906 26.9042 86.0727C23.0726 82.724 21.048 77.9664 21.048 72.3136C21.048 66.3347 23.167 61.1445 27.0144 57.6988C29.9896 55.0342 33.7558 53.618 37.779 53.618C38.415 53.618 39.0577 53.6535 39.7048 53.7247C44.4825 54.253 48.1961 56.5213 49.894 59.9489C51.1404 62.4647 51.0721 65.2119 49.7061 67.4862C48.6437 69.2553 47.1984 70.3461 45.4111 70.728C43.3463 71.1698 40.8381 70.6362 39.0206 69.3696L34.4867 77.2226C38.2815 79.6165 43.0141 80.5004 47.3046 79.5836C51.5822 78.6687 55.0971 76.0979 57.4692 72.1483C60.4111 67.2496 60.6129 61.1866 58.0085 55.9288C55.2303 50.3208 49.8617 46.4561 43.0732 45.092C44.17 42.6807 45.7273 40.5389 47.7146 38.7314C51.7623 35.0509 57.4481 33.0237 63.7249 33.0237C71.2035 33.0237 78.1095 36.0407 83.1706 41.5185C88.2491 47.0148 91.0459 54.4544 91.0459 62.4663C91.0459 70.5185 88.0236 77.8975 82.5356 83.2436C76.7165 88.9121 68.7032 91.9084 59.3618 91.9084H46.3232ZM97.3839 47.6012C91.9913 33.599 79.1177 23.9683 63.7249 23.9683C55.1899 23.9683 47.3406 26.8318 41.6224 32.0315C37.7992 35.5082 35.0319 39.9317 33.4969 44.9111C28.8605 45.6875 24.559 47.7418 20.9729 50.9531C15.1819 56.1394 11.9926 63.7255 11.9926 72.3136C11.9926 80.656 15.0883 87.7714 20.944 92.8906C26.986 98.1723 35.762 100.964 46.3232 100.964H59.3618C59.4262 100.964 59.4904 100.962 59.5548 100.962V100.964H84.5912C103.33 100.964 115.921 89.9427 115.921 73.5392C115.921 61.5277 108.156 51.3017 97.3839 47.6012Z" fill="white"/>
</svg>
